<?xml version="1.0" encoding="UTF-8" standalone="no"?>
<!-- Created with Inkscape (http://www.inkscape.org/) -->

<svg
   xmlns:dc="http://purl.org/dc/elements/1.1/"
   xmlns:cc="http://creativecommons.org/ns#"
   xmlns:rdf="http://www.w3.org/1999/02/22-rdf-syntax-ns#"
   xmlns:svg="http://www.w3.org/2000/svg"
   xmlns="http://www.w3.org/2000/svg"
   xmlns:sodipodi="http://sodipodi.sourceforge.net/DTD/sodipodi-0.dtd"
   xmlns:inkscape="http://www.inkscape.org/namespaces/inkscape"
   width="500"
   height="90"
   id="svg2"
   version="1.1"
   inkscape:version="0.48.2 r9819"
   sodipodi:docname="iconography.svg"
   inkscape:export-filename="C:\Users\Dan\Code\talldandotcom\artwork\tiledgadgets.png"
   inkscape:export-xdpi="90"
   inkscape:export-ydpi="90">
  <defs
     id="defs4" />
  <sodipodi:namedview
     id="base"
     pagecolor="#33342f"
     bordercolor="#666666"
     borderopacity="1.0"
     inkscape:pageopacity="0"
     inkscape:pageshadow="2"
     inkscape:zoom="0.86619781"
     inkscape:cx="165.94573"
     inkscape:cy="232.74098"
     inkscape:document-units="px"
     inkscape:current-layer="layer1"
     showgrid="false"
     showguides="true"
     inkscape:guide-bbox="true"
     inkscape:window-width="1680"
     inkscape:window-height="997"
     inkscape:window-x="1592"
     inkscape:window-y="-8"
     inkscape:window-maximized="1">
    <sodipodi:guide
       orientation="1,0"
       position="-273.60956,940.89363"
       id="guide3879" />
    <sodipodi:guide
       orientation="1,0"
       position="-273.60956,1069.0399"
       id="guide3909" />
  </sodipodi:namedview>
  <metadata
     id="metadata7">
    <rdf:RDF>
      <cc:Work
         rdf:about="">
        <dc:format>image/svg+xml</dc:format>
        <dc:type
           rdf:resource="http://purl.org/dc/dcmitype/StillImage" />
        <dc:title></dc:title>
      </cc:Work>
    </rdf:RDF>
  </metadata>
  <g
     inkscape:label="Layer 1"
     inkscape:groupmode="layer"
     id="layer1"
     transform="translate(0,-962.36218)">
    <g
       id="g3831"
       transform="matrix(0.23312709,0,0,0.23312709,153.20184,974.54545)">
      <path
         sodipodi:nodetypes="ccsccsccsccsc"
         inkscape:connector-curvature="0"
         id="path3770"
         d="M 347.14286,-29.06639 22.5,140.21932 c 0,0 -6.69874,2.72115 -6.071428,7.32143 0.535714,3.92857 5.892857,7.67858 5.892857,7.67858 L 239.28571,307.36218 c 0,0 12.14402,9.48531 20.35715,9.82143 12.13401,0.49658 23.57143,-7.14286 23.57143,-7.14286 109.51602,-81.23858 308.58295,-218.692525 329.64285,-237.678568 0,0 6.83018,-4.229663 4.28572,-8.750001 -3.3732,-5.992629 -22.85715,-11.964285 -22.85715,-11.964285 L 375,-31.209247 c 0,0 -3.75,-1.071429 -13.03572,-1.071428 -10.61477,0 -14.82142,3.214285 -14.82142,3.214285 z"
         style="fill:#eeeeee;fill-opacity:1;stroke:#eeeeee;stroke-width:1.70000005;stroke-miterlimit:4;stroke-opacity:1" />
      <path
         id="path3827"
         d="m 477.14286,18.433611 c 0,1.380712 -2.07868,2.5 -4.64286,2.5 -2.56418,0 -4.64286,-1.119288 -4.64286,-2.5 0,-1.380712 2.07868,-2.5 4.64286,-2.5 2.56418,0 4.64286,1.119288 4.64286,2.5 z"
         style="fill:#dddddd;fill-opacity:1;stroke:#dddddd;stroke-width:1.70000005;stroke-miterlimit:4;stroke-opacity:1"
         inkscape:connector-curvature="0" />
      <path
         id="path3825"
         d="m 154.28571,213.43361 c 0,4.14214 -5.59644,7.5 -12.5,7.5 -6.90356,0 -12.5,-3.35786 -12.5,-7.5 0,-4.14213 5.59644,-7.5 12.5,-7.5 6.90356,0 12.5,3.35787 12.5,7.5 z"
         style="fill:#dddddd;fill-opacity:1;stroke:#dddddd;stroke-width:1.70000005;stroke-miterlimit:4;stroke-opacity:1"
         inkscape:connector-curvature="0" />
      <path
         sodipodi:nodetypes="ccccc"
         inkscape:connector-curvature="0"
         id="path3823"
         d="m 65,138.79075 287.85714,-152.142854 215.71429,85 -297.14286,203.571424 z"
         style="fill:#33342f;fill-opacity:1;stroke:#dddddd;stroke-width:1.70000005;stroke-miterlimit:4;stroke-opacity:1" />
    </g>
    <g
       id="g3871"
       transform="matrix(0.53857039,0,0,0.53857039,231.80618,852.92398)">
      <path
         transform="matrix(0.87272727,0,0,0.56363635,41.41351,153.27241)"
         d="m 352.14285,311.29074 c 0,10.84845 -23.82485,19.64286 -53.21429,19.64286 -29.38944,0 -53.21429,-8.79441 -53.21429,-19.64286 0,-10.84845 23.82485,-19.64286 53.21429,-19.64286 29.38944,0 53.21429,8.79441 53.21429,19.64286 z"
         sodipodi:ry="19.642857"
         sodipodi:rx="53.214287"
         sodipodi:cy="311.29074"
         sodipodi:cx="298.92856"
         id="path3861"
         style="fill:#bbbbbb;fill-opacity:1;stroke:none"
         sodipodi:type="arc" />
      <path
         sodipodi:nodetypes="ccscsccc"
         inkscape:connector-curvature="0"
         id="path3863"
         d="m 314.61011,304.20778 2.83441,16.62149 c 0,0 13.4696,1.09511 11.2571,5.47555 -2.99786,5.93534 -28.44399,6.11661 -28.44399,6.11661 0,0 -22.54623,-0.004 -25.88651,-5.89428 -2.67445,-4.71614 10.74338,-5.84436 10.74338,-5.84436 l 2.40281,-11.36339 z"
         style="fill:#cccccc;fill-opacity:1;stroke:none" />
      <g
         transform="translate(94.636105,47.857143)"
         id="g3857">
        <path
           style="fill:#dddddd;fill-opacity:1;stroke:none"
           d="m 143.94826,162.97531 0.71429,117.97855 121.36976,-39.43407 0,-73.45458 z"
           id="path3837-9"
           inkscape:connector-curvature="0"
           sodipodi:nodetypes="ccccc" />
        <path
           style="fill:#33342f;fill-opacity:1;stroke:none"
           d="m 157.14286,173.07647 0,90 101.40269,-27.2765 0,-61.65432 z"
           id="path3837"
           inkscape:connector-curvature="0"
           sodipodi:nodetypes="ccccc" />
      </g>
      <path
         sodipodi:nodetypes="ccccccc"
         inkscape:connector-curvature="0"
         id="path3869"
         d="m 282.49393,342.93333 -0.70979,5.67827 29.45603,14.19567 73.81751,-29.10113 0.35489,-3.19403 -30.16581,-11.00165 z"
         style="fill:#dddddd;fill-opacity:1;stroke:none" />
    </g>
    <g
       id="g3974"
       transform="matrix(0.58487282,0,0,0.58487282,-117.45649,1057.4727)">
      <path
         inkscape:connector-curvature="0"
         id="path3972"
         d="m 291.16953,-94.419888 c 0,0 -3.83174,-34.485662 16.09331,-45.980872 19.92505,-11.49522 9.96253,22.99043 18.39235,26.05583 8.42983,3.06539 17.626,-5.36444 15.32696,-17.626 -2.29904,-12.26157 1.53269,-28.35487 8.42983,-19.1587"
         style="fill:none;stroke:#888888;stroke-width:7.56742096;stroke-linecap:butt;stroke-linejoin:miter;stroke-miterlimit:4;stroke-opacity:1;stroke-dasharray:none" />
      <g
         transform="matrix(0.23638761,0,0,0.26078895,159.00422,-70.32001)"
         id="g3963">
        <path
           id="path3883"
           style="fill:#dddddd;fill-opacity:1;stroke:none"
           d="m 570.30852,-142.515 129.30072,0 c 0,0 96.97554,0 122.37389,4.61788 38.09754,16.16259 109.67472,200.877907 113.13813,233.203087 3.46342,32.325183 -23.08941,90.048723 -46.17883,102.747893 -23.08941,12.69918 -85.43083,16.16259 -95.82106,9.23577 -10.39024,-6.92682 -31.17071,-38.09753 -40.40648,-54.26012 -9.23577,-16.16259 -28.86177,-75.040603 -28.86177,-75.040603 0,0 -2.30894,-11.54471 -13.85365,-17.31706 -11.5447,-5.77235 -38.09753,-5.77235 -38.09753,-5.77235 -15.00812,2.30894 -73.88612,13.85365 -101.59342,15.00812 z m 0,0 -129.30072,0 c 0,0 -96.97554,0 -122.37389,4.61788 -38.09753,16.16259 -109.67471,200.877907 -113.13812,233.203087 -3.46342,32.325183 23.08941,90.048723 46.17882,102.747893 23.08942,12.69918 85.43083,16.16259 95.82107,9.23577 10.39023,-6.92682 31.1707,-38.09753 40.40647,-54.26012 9.23577,-16.16259 28.86177,-75.040603 28.86177,-75.040603 0,0 2.30894,-11.54471 13.85365,-17.31706 11.5447,-5.77235 38.09753,-5.77235 38.09753,-5.77235 15.00812,2.30894 73.88612,13.85365 101.59342,15.00812"
           inkscape:connector-curvature="0"
           sodipodi:nodetypes="cccsssscsccccccsssscscc" />
        <path
           style="fill:#cccccc;fill-opacity:1;stroke:none"
           d="m 435.80329,24.022887 c -10.58866,0.19842 -19.61916,1.42632 -25.96875,4.3125 -25.39835,11.5447 -64.64991,102.766013 -80.8125,113.156253 -16.16259,10.39023 -69.25256,-0.009 -91.1875,-5.78125 -12.81827,-3.37323 -24.43905,-12.73817 -31.65625,-19.65625 4.8247,32.29268 26.35707,73.75264 45.5,84.28125 23.08942,12.69918 85.42226,16.17682 95.8125,9.25 10.39023,-6.92682 31.17048,-38.11866 40.40625,-54.28125 9.23577,-16.16259 28.875,-75.031253 28.875,-75.031253 0,0 2.29904,-11.54015 13.84375,-17.3125 11.5447,-5.77235 38.09375,-5.78125 38.09375,-5.78125 15.00812,2.30894 73.88645,13.84553 101.59375,15 27.7073,-1.15447 86.58563,-12.69106 101.59375,-15 0,0 26.54905,0.0089 38.09375,5.78125 11.54471,5.77235 13.875,17.3125 13.875,17.3125 0,0 19.60798,58.868663 28.84375,75.031253 9.23577,16.16259 30.01601,47.35443 40.40625,54.28125 10.39023,6.92682 72.72309,3.44918 95.8125,-9.25 21.68134,-11.92473 46.43139,-63.5457 46.5,-96.5625 -2.10666,3.92477 -7.31581,18.15956 -18.79015,29.6339 -12.69917,12.69917 -52.37552,22.98295 -75.02235,24.2411 -20.78047,1.15447 -38.10621,-6.91871 -46.1875,-15 -13.5865,-13.58651 -52.79309,-97.897326 -61.19562,-103.899136 -8.08129,-5.77236 -15.01046,-12.696398 -39.25434,-12.696396 -28.1132,10e-7 -110.83107,8.062499 -151.23754,6.908029 -30.30485,-0.86585 -76.17151,-9.53278 -107.9375,-8.9375 z"
           id="path3883-4"
           inkscape:connector-curvature="0"
           sodipodi:nodetypes="sssscssscscccscssscsssssss" />
        <path
           sodipodi:type="arc"
           style="fill:#33342f;fill-opacity:1;stroke:none"
           id="path3907"
           sodipodi:cx="341.14609"
           sodipodi:cy="322.15945"
           sodipodi:rx="72.154419"
           sodipodi:ry="57.146301"
           d="m 413.30051,322.15945 c 0,31.56104 -32.30464,57.14631 -72.15442,57.14631 -39.84979,0 -72.15442,-25.58527 -72.15442,-57.14631 0,-31.56103 32.30463,-57.1463 72.15442,-57.1463 39.84978,0 72.15442,25.58527 72.15442,57.1463 z"
           transform="matrix(1.208771,0,0,1.0396767,305.19166,-397.26256)" />
        <g
           id="g3956"
           transform="matrix(0.59784768,0,0,0.63498108,330.97089,-234.83395)">
          <path
             inkscape:connector-curvature="0"
             d="m 121.21942,175.80997 -32.32518,0 -36.644543,187.18411 68.969723,0 z m 0,1e-5 32.32518,0 36.64454,187.1841 -68.96972,0 z"
             style="fill:#33342f;fill-opacity:1;stroke:none"
             id="path3911-8"
             sodipodi:nodetypes="cccccccccc" />
          <g
             transform="matrix(1,0,0,0.92187499,0,17.817978)"
             style="fill:#33342f;fill-opacity:1;stroke:none"
             id="g3952">
            <path
               id="path3932-8"
               style="fill:#33342f;fill-opacity:1;stroke:none"
               d="m 121.21942,228.0701 120.06495,0 33.52985,65.68387 -151.58702,0 z m 0,0 -115.4470665,0 -34.1321775,65.68387 151.587024,0 z"
               inkscape:connector-curvature="0"
               sodipodi:nodetypes="cccccccccc" />
          </g>
        </g>
      </g>
    </g>
  </g>
</svg>
